<svg version="1" xmlns="http://www.w3.org/2000/svg" width="682.667" height="682.667" viewBox="0 0 512.000000 512.000000"><path d="M0 256v256h512V0H0v256zm156-79c42.9 3.9 67.5 21.1 76.1 53 2 7.2 2.3 11 2.3 25 0 19-1.8 27.9-8.1 41-5.4 11.1-17.7 23.1-29.6 28.9-10.2 4.9-23.4 8.5-37 10-13.7 1.6-60.9 1.5-62.5-.1-1.7-1.7-1.7-155.9 0-157.6 1.5-1.5 42.3-1.6 58.8-.2zm154.2-.8c.1.2.5 15.1.8 33.3l.5 33h75l.5-33c.3-18.2.7-33.1.8-33.3.1-.1 6.4-.1 14 0l13.7.3.3 78.9c.2 62.5 0 79.1-1 79.8-2.3 1.4-25.4 1-26.7-.5-.7-.9-1.2-12.6-1.3-36.3l-.3-34.9h-75l-.3 34.9c-.1 23.7-.6 35.4-1.3 36.3-.8.9-4.3 1.3-12.9 1.3-6.5 0-12.5-.3-13.4-.6-1.4-.6-1.6-8.5-1.6-79.3 0-43.3.3-79.1.7-79.4.6-.6 27-1 27.5-.5z"/><path d="M125.5 196.2c-.3.7-.4 28.3-.3 61.3l.3 60 8.5.3c4.7.2 12.9-.2 18.4-.8 29.3-3.4 44.4-15 50.3-38.7 2.4-9.5 2.4-35.1 0-44.6-6.9-27.4-26.3-38.7-66.5-38.7-7.3 0-10.4.4-10.7 1.2z"/></svg>